# xmcd
# Track frame offsets:
# 150
# 15916
# 32966
# 50133
# 61404
# 75463
# 94521
# 106864
# 119851
# 133152
# 146707
# 161991
# 172395
# 186874
# 202130
# 219124
#
# Disc length: 3062 seconds
# Revision: 0
# Processed by: cddbd v1.4PL0 Copyright (c) Steve Scherf et al.
# Submitted via: VisiTrax 2.9.5.180 - For more info visit www.synapsa.com
#
DISCID=f10bf410
DTITLE=Paddy O'Brien - Sincerely Yours
DYEAR=1900
DGENRE=Irsk
TTITLE0=Leaves in the wind
TTITLE1=Someone to love
TTITLE2=I need you to hold me together
TTITLE3=Martha
TTITLE4=Angel tonight
TTITLE5=Only time
TTITLE6=Faded rose
TTITLE7=The way to you by heart
TTITLE8=Phillipino Rose
TTITLE9=One by one
TTITLE10=Feeling the weight of my chains
TTITLE11=Little whitewashed chimney
TTITLE12=Couple more years
TTITLE13=Little old mud cabin
TTITLE14=I'll take the memories
TTITLE15=Tiger by the tail
EXTD=
EXTT0=
EXTT1=
EXTT2=
EXTT3=
EXTT4=
EXTT5=
EXTT6=
EXTT7=
EXTT8=
EXTT9=
EXTT10=
EXTT11=
EXTT12=
EXTT13=
EXTT14=
EXTT15=
PLAYORDER=
